<svg width="80" height="100" viewBox="0 0 80 100" xmlns="http://www.w3.org/2000/svg">
  <!-- Background da carta com gradiente -->
  <defs>
    <linearGradient id="cardGradient" x1="0%" y1="0%" x2="0%" y2="100%">
      <stop offset="0%" style="stop-color:#4A5568;stop-opacity:1" />
      <stop offset="50%" style="stop-color:#2D3748;stop-opacity:1" />
      <stop offset="100%" style="stop-color:#1A202C;stop-opacity:1" />
    </linearGradient>
    <linearGradient id="cardBorder" x1="0%" y1="0%" x2="100%" y2="100%">
      <stop offset="0%" style="stop-color:#805AD5;stop-opacity:1" />
      <stop offset="100%" style="stop-color:#553C9A;stop-opacity:1" />
    </linearGradient>
    <filter id="glow">
      <feGaussianBlur stdDeviation="2" result="coloredBlur"/>
      <feMerge> 
        <feMergeNode in="coloredBlur"/>
        <feMergeNode in="SourceGraphic"/>
      </feMerge>
    </filter>
  </defs>
  
  <!-- Sombra da carta -->
  <rect x="3" y="3" width="74" height="94" rx="8" ry="8" fill="#000" opacity="0.4"/>
  
  <!-- Fundo principal da carta -->
  <rect x="0" y="0" width="74" height="94" rx="8" ry="8" fill="url(#cardGradient)" stroke="url(#cardBorder)" stroke-width="2"/>
  
  <!-- Brilho interno -->
  <rect x="4" y="4" width="66" height="20" rx="6" ry="6" fill="#667EEA" opacity="0.3"/>
  
  <!-- Área do ícone/imagem -->
  <rect x="8" y="12" width="58" height="40" rx="4" ry="4" fill="#1A202C" stroke="#4A5568" stroke-width="1"/>
  
  <!-- Decoração central (padrão geométrico) -->
  <g transform="translate(37, 32)" opacity="0.6">
    <polygon points="0,-8 6,0 0,8 -6,0" fill="#805AD5"/>
    <circle cx="0" cy="0" r="3" fill="#9F7AEA"/>
  </g>
  
  <!-- Área do texto/descrição -->
  <rect x="8" y="60" width="58" height="25" rx="3" ry="3" fill="#2D3748" stroke="#4A5568" stroke-width="1"/>
  
  <!-- Linhas decorativas para texto -->
  <line x1="12" y1="68" x2="62" y2="68" stroke="#667EEA" stroke-width="1" opacity="0.7"/>
  <line x1="12" y1="74" x2="50" y2="74" stroke="#667EEA" stroke-width="1" opacity="0.5"/>
  <line x1="12" y1="80" x2="55" y2="80" stroke="#667EEA" stroke-width="1" opacity="0.5"/>
  
  <!-- Cantos decorativos -->
  <g stroke="#805AD5" stroke-width="1" fill="none" opacity="0.8">
    <path d="M 8 8 L 15 8 M 8 8 L 8 15"/>
    <path d="M 66 8 L 59 8 M 66 8 L 66 15"/>
    <path d="M 8 86 L 15 86 M 8 86 L 8 79"/>
    <path d="M 66 86 L 59 86 M 66 86 L 66 79"/>
  </g>
  
  <!-- Efeito de brilho sutil -->
  <ellipse cx="20" cy="20" rx="8" ry="4" fill="#9F7AEA" opacity="0.3" filter="url(#glow)"/>
</svg>
